<?xml version="1.0" encoding="UTF-8"?>
<!DOCTYPE svg PUBLIC "-//W3C//DTD SVG 1.1//EN" "http://www.w3.org/Graphics/SVG/1.1/DTD/svg11.dtd">
<!-- Creator: CorelDRAW 2020 (64 Bit) -->
<svg xmlns="http://www.w3.org/2000/svg" xml:space="preserve" width="20.5525mm" height="20.5525mm" version="1.1" style="shape-rendering:geometricPrecision; text-rendering:geometricPrecision; image-rendering:optimizeQuality; fill-rule:evenodd; clip-rule:evenodd"
viewBox="0 0 376.27 376.27"
 xmlns:xlink="http://www.w3.org/1999/xlink"
 xmlns:xodm="http://www.corel.com/coreldraw/odm/2003">
 <defs>
  <style type="text/css">
   <![CDATA[
    .fil0 {fill:black}
   ]]>
  </style>
 </defs>
 <g id="Camada_x0020_1">
  <metadata id="CorelCorpID_0Corel-Layer"/>
  <g id="_1821581938544">
   <path class="fil0" d="M11.64 356.88l0 -337.48c0,-4.54 3.22,-7.76 7.76,-7.76l219.17 0c4.54,0 7.76,3.22 7.76,7.76l0 337.48c0,4.54 -3.22,7.76 -7.76,7.76l-219.17 0c-4.54,0 -7.76,-3.22 -7.76,-7.76zm248.26 -58.19l0 -50.43 40.73 0c-2.35,10.11 -8.59,22.67 -14.34,30.27 -9.64,12.76 -15.22,14.8 -26.39,20.16zm32.97 -7.76c7.45,-11.13 19.95,-26.06 21.33,-42.67l31.03 0c-8.63,16.31 -32.61,38.07 -52.37,42.67zm7.76 -56.25l-40.73 0 0 -40.73 50.43 0 -1.87 25.28c-1.09,6.91 -0.69,15.45 -7.83,15.45zm54.31 0l-36.85 0c3.27,-6.82 5.82,-29.68 5.82,-40.73l40.73 0c-2.64,5.5 -2.03,14.57 -3.78,21.43 -1.96,7.65 -5.29,11.83 -5.92,19.3zm-95.04 -93.1c49.89,0 45.53,-3.9 48.31,13.76l2.12 26.97 -50.43 0 0 -40.73zm60.12 0l34.91 0c0.64,7.71 3.95,11.3 5.74,19.48 1.4,6.4 1.38,15.87 3.96,21.25l-40.73 0c0,-15.84 -3.88,-27.03 -3.88,-40.73zm-60.12 -64.01c11.09,5.32 15.5,6.5 25.55,19.06 5.93,7.41 12.74,20.9 15.18,31.37l-40.73 0 0 -50.43zm32.97 7.76c19.75,4.6 43.74,26.36 52.37,42.67l-31.03 0c-1.38,-16.61 -13.88,-31.54 -21.33,-42.67zm-292.87 -71.76l0 349.12c0,4.69 8.88,13.58 13.58,13.58l228.87 0c23.67,0 17.46,-37.16 17.46,-64 57.87,-1.29 116.37,-55.52 116.37,-120.25 0,-69.82 -47.36,-122.27 -116.37,-128.01 0,-24.01 6.87,-64 -17.46,-64l-228.87 0c-4.69,0 -13.58,8.88 -13.58,13.58z"/>
   <path class="fil0" d="M42.67 60.13l174.56 0 0 256.02 -174.56 0 0 -256.02zm-13.58 267.66c20.27,4.72 161.77,1.94 193.95,1.94 5.96,0 7.76,-5.68 7.76,-11.64l0 -259.9c0,-5.96 -1.8,-11.64 -7.76,-11.64l-188.14 0c-9.47,0 -5.83,20.03 -5.82,29.09l0 252.14z"/>
   <path class="fil0" d="M95.04 155.16c2.92,0.24 26.83,12.78 32.97,-13.58 9.14,6.69 -1.48,7.83 13.16,14.09 13.84,5.92 8.55,0.58 21.75,-0.52 -0.48,2.06 -12.81,28.84 13.58,31.03l0 3.88c-26.3,2.19 -14.03,29.08 -13.58,31.03 -6,-0.5 -16.1,-8.74 -27.28,1.81 -6.13,5.78 -0.29,6.39 -7.63,11.77 -1.27,-5.46 -1.36,-8.72 -5.48,-11.97 -12.57,-9.91 -21.48,-2.55 -25.55,-1.6 1.06,-12.67 6.42,-6.42 1.68,-18.92 -2.98,-7.87 -5.66,-11.31 -15.25,-12.11l0 -3.88c18.62,-4.34 19.31,-16.54 11.64,-31.03zm15.52 -11.64c-4.44,2.59 -8,-2.13 -15.52,-3.88 -22.83,15.29 -9.7,16.11 -9.7,32.97 -17.62,4.1 -15.52,4.77 -15.52,21.34 0,8.76 9.4,5.56 14.64,10.76 8.91,8.86 -17.77,12.93 10.58,31.91l12.19 -4.49c13.46,-1.18 1.39,16.13 22.72,16.13 11.48,0 10.97,-6.64 12.9,-10.38 1.43,-2.76 1.63,-8.41 11.56,-4.67 4.63,1.74 2.99,2.12 8.51,3.41 22.27,-14.91 10.65,-19.58 9.7,-31.03 16.6,-8.78 15.52,-3.21 15.52,-23.27 0,-7.32 -6.21,-5.41 -15.52,-11.64 1.12,-13.51 10.58,-14.01 -0.28,-24.87 -3.08,-3.08 -6.16,-5.98 -11.07,-5.56 -7.04,0.6 -7.09,5.04 -11.93,3.27 -9.47,-2.53 -3.43,-0.72 -7.22,-8.29 -5.9,-11.79 -20.75,-8.17 -24.38,-1.97 -3.13,5.35 -0.49,7.84 -7.19,10.26z"/>
   <path class="fil0" d="M118.31 190.08l0 -3.88c0,-12.08 21.33,-12.08 21.33,0l0 3.88c0,12.08 -21.33,12.08 -21.33,0zm-13.58 -1.94c0,28.32 48.49,34.8 48.49,-1.94 0,-29.92 -48.49,-27.58 -48.49,1.94z"/>
   <path class="fil0" d="M98.92 349.12c3.5,2.35 3.41,3.88 7.76,3.88l46.55 0c9.42,0 8.43,-13.58 -5.82,-13.58 -34,0 -45.19,-4.48 -48.49,9.7z"/>
   <path class="fil0" d="M110.55 27.15c2.73,11.73 9.46,9.7 25.21,9.7 14.25,0 15.24,-13.58 5.82,-13.58 -14,0 -24.82,-2.2 -31.03,3.88z"/>
  </g>
 </g>
</svg>
