<?xml version="1.0" encoding="UTF-8"?>
<!DOCTYPE svg PUBLIC "-//W3C//DTD SVG 1.1//EN" "http://www.w3.org/Graphics/SVG/1.1/DTD/svg11.dtd">
<!-- Creator: CorelDRAW 2020 (64 Bit) -->
<svg xmlns="http://www.w3.org/2000/svg" xml:space="preserve" width="21.7922mm" height="27.8033mm" version="1.1" style="shape-rendering:geometricPrecision; text-rendering:geometricPrecision; image-rendering:optimizeQuality; fill-rule:evenodd; clip-rule:evenodd"
viewBox="0 0 327.35 417.64"
 xmlns:xlink="http://www.w3.org/1999/xlink"
 xmlns:xodm="http://www.corel.com/coreldraw/odm/2003">
 <defs>
  <style type="text/css">
   <![CDATA[
    .fil0 {fill:black}
   ]]>
  </style>
 </defs>
 <g id="Camada_x0020_1">
  <metadata id="CorelCorpID_0Corel-Layer"/>
  <g id="_1821525597952">
   <path class="fil0" d="M205.96 290.74l-84.47 0.32c-1.8,-37.13 -31.87,-45.17 -47.41,-93.68 -5.04,-15.72 -14.48,-8.15 -15.86,-5.45 -8,15.68 30.24,64.43 37.77,75.09 26.61,37.69 -13.39,106.65 32.33,139.16 27.58,19.61 64.48,12.5 80.87,-9.53 10.9,-14.66 12.89,-21.34 12.84,-43.85 -0.04,-18.95 -0.35,-38.29 0.18,-57.2 0.84,-29.79 20.43,-36.15 39.79,-74.8 45.68,-91.24 -38.13,-200.54 -139.09,-160.34 -58.45,23.28 -78.63,88.9 -52.98,78.1 3.91,-1.65 4.18,-4.66 5.89,-9.23 28.83,-77.25 138.69,-80.36 173.42,-5.8 13.69,29.4 10.9,64.47 -3.33,92.6 -6.91,13.66 -15.01,23.79 -22.79,34.38 -8.49,11.55 -16.24,21.35 -17.16,40.23zm-84.42 69.51c8.43,2.06 75.93,2.06 83.92,0l0.34 -17.98 -83.73 -0.69 -0.54 18.67zm79.92 16.92l-76.12 -0.11c11.38,31.92 65.38,31.91 76.12,0.11zm-78.17 -51.32l81.25 0c1.51,-5.9 1.08,-12.19 0.22,-18.44l-82.7 0c-0.26,6.25 -0.69,12.54 1.22,18.44z"/>
   <path class="fil0" d="M155.16 188.34l1.08 24.53c6.98,2.88 8,2.88 14.34,-0.03l1.69 -24.51c15.27,-0.55 32.4,4.61 27.53,-13.9 -9.54,-4.5 -45.93,-2.52 -60.57,-2.52 -9.44,0 -18.28,5.66 -10.82,13.54 4.04,4.27 19.51,2.63 26.76,2.89z"/>
   <path class="fil0" d="M49.71 47.4c-10.09,6.8 1.11,14.63 5.35,18.84 3.48,3.45 11.2,14.96 19.06,9.33 9.23,-6.6 -2.24,-16.14 -5.63,-19.5 -3.91,-3.88 -10.62,-14.18 -18.78,-8.67z"/>
   <path class="fil0" d="M42.52 285.97c11.11,3.06 13.49,-3.39 19.19,-9.05 3.3,-3.28 15.36,-12.25 7.31,-18.95 -8.5,-7.08 -16.18,4.26 -19.93,7.97 -6.48,6.4 -11.83,9.15 -6.57,20.03z"/>
   <path class="fil0" d="M5.38 156.33c-8.86,3.98 -5.71,13.42 1.71,15.17 4.5,1.07 22.99,1.1 26.77,-0.82 6.2,-3.14 6.58,-13.14 -2.72,-14.95 -4.5,-0.88 -22.57,-0.83 -25.76,0.6z"/>
   <path class="fil0" d="M294.44 156.34c-8.99,4.03 -5.73,13.42 1.7,15.17 4.51,1.06 22.98,1.08 26.77,-0.84 6.07,-3.09 6.58,-13.14 -2.71,-14.94 -4.53,-0.88 -22.55,-0.83 -25.76,0.61z"/>
   <path class="fil0" d="M279.67 47.4c-11.21,-4 -14.15,2.09 -19.9,7.86 -3.37,3.38 -14.79,11.86 -7.4,19.49 7.44,7.69 15.88,-4.36 19.2,-7.7 5.23,-5.25 12.51,-9.35 8.1,-19.65z"/>
   <path class="fil0" d="M160.3 1.13c-7.15,3.65 -4.88,14.39 -4.85,21.87 0.03,8.03 1.61,19.28 12.17,13.98 6.61,-3.32 9.11,-44.24 -7.32,-35.85z"/>
   <path class="fil0" d="M284.93 285.97c4.99,-10.33 0.64,-12.97 -5.75,-19.22 -6.01,-5.89 -8.66,-12.91 -20.32,-9.79 -5.92,9.97 -0.36,12.83 6.05,19.16 5.81,5.74 8.64,12.99 20.02,9.86z"/>
   <path class="fil0" d="M65.25 170.9c3.76,-5.03 4.04,-2.33 3.59,-11.1 -16.93,-14.45 -24.05,15.09 -3.59,11.1z"/>
   <path class="fil0" d="M156.85 245.56c5.92,2.55 7.83,2.54 13.75,0 4.67,-19.16 -18.42,-19.16 -13.75,0z"/>
  </g>
 </g>
</svg>
