<?xml version="1.0" ?><svg viewBox="0 0 512 512" xmlns="http://www.w3.org/2000/svg"><g id="Cloud_data_recovery"><path d="M152.6782,90.38a95.2862,95.2862,0,0,1,172.8418,0,41.8956,41.8956,0,0,0,37.9316,24.1318h.1163l.1826-.001A85.3489,85.3489,0,0,1,446.8911,219.382a6.5,6.5,0,0,0,12.65,2.9981,98.3878,98.3878,0,0,0-95.791-120.8692l-.2744.001h-.08A28.8393,28.8393,0,0,1,337.3091,84.9a108.2874,108.2874,0,0,0-196.42,0,28.822,28.822,0,0,1-26.0332,16.6133c-.0253,0-.0517,0-.0771-.001l-.3311-.001a98.4035,98.4035,0,0,0-98.4013,99.1485c.3994,53.8486,45.06,97.6582,99.5547,97.6582h48.48a6.5,6.5,0,0,0,0-13h-48.48c-47.38,0-86.208-38.0205-86.5547-84.7539a85.4032,85.4032,0,0,1,85.4013-86.0528l.2383.001H114.8A41.8828,41.8828,0,0,0,152.6782,90.38Z"/><path d="M113.86,132.3908a67.0246,67.0246,0,0,0-67.02,67.5352,6.5,6.5,0,0,0,6.4991,6.4521h.0488a6.5,6.5,0,0,0,6.4521-6.5478,54.0242,54.0242,0,0,1,54.003-54.4395l.3593.001h.0176a6.5,6.5,0,0,0,.0176-13Z"/><path d="M493.479,352.27a6.5,6.5,0,0,0-5.99-3.9765H475.5014a142.5045,142.5045,0,0,0-22.5937-75.0205c-42.5693-66.4844-131.29-85.9434-197.7764-43.3721C188.646,272.47,169.19,361.1916,211.7593,427.677a142.2353,142.2353,0,0,0,89.9062,62.6474,144.3981,144.3981,0,0,0,30.9522,3.3731A143.3865,143.3865,0,0,0,462.6011,409.92a6.5,6.5,0,0,0-11.8321-5.3867,130.1413,130.1413,0,1,1,11.7339-56.24H452.2173a6.5,6.5,0,0,0-4.7227,10.9658l17.3535,18.35a6.5046,6.5046,0,0,0,4.6709,2.0342h.0518a6.5008,6.5008,0,0,0,4.65-1.959l17.9179-18.35A6.5006,6.5006,0,0,0,493.479,352.27Z"/><polygon points="357.055 307.962 398.364 307.962 357.055 268.794 357.055 307.962"/><path d="M275.3169,260.2951a15.25,15.25,0,0,0-15.2334,15.2324V420.7482a15.25,15.25,0,0,0,15.2334,15.2325H389.49a15.25,15.25,0,0,0,15.2334-15.2325V318.9621H351.5552a5.5006,5.5006,0,0,1-5.5-5.5v-53.167ZM365.313,407.6789H299.4936a5.75,5.75,0,0,1,0-11.5H365.313a5.75,5.75,0,0,1,0,11.5Zm0-26.6362H299.4936a5.75,5.75,0,0,1,0-11.5H365.313a5.75,5.75,0,0,1,0,11.5Zm0-38.1363a5.75,5.75,0,0,1,0,11.5H299.4936a5.75,5.75,0,0,1,0-11.5Z"/></g></svg>