<?xml version="1.0" encoding="UTF-8"?>
<!DOCTYPE svg PUBLIC "-//W3C//DTD SVG 1.1//EN" "http://www.w3.org/Graphics/SVG/1.1/DTD/svg11.dtd">
<!-- Creator: CorelDRAW 2020 (64 Bit) -->
<svg xmlns="http://www.w3.org/2000/svg" xml:space="preserve" width="23.355mm" height="23.355mm" version="1.1" style="shape-rendering:geometricPrecision; text-rendering:geometricPrecision; image-rendering:optimizeQuality; fill-rule:evenodd; clip-rule:evenodd"
viewBox="0 0 3707.76 3707.76"
 xmlns:xlink="http://www.w3.org/1999/xlink"
 xmlns:xodm="http://www.corel.com/coreldraw/odm/2003">
 <defs>
  <style type="text/css">
   <![CDATA[
    .fil0 {fill:black;fill-rule:nonzero}
   ]]>
  </style>
 </defs>
 <g id="Camada_x0020_1">
  <metadata id="CorelCorpID_0Corel-Layer"/>
  <path id="path843" class="fil0" d="M1853.88 61.8c-526.44,-0.03 -980.39,370 -1086.5,885.66l-7.73 41.99c4.51,-0.1 8.87,-0.71 13.41,-0.71 39.88,0 70.15,0.56 108.73,8.45l9.19 -49.72c101.89,-495.26 524.94,-855.27 1024.69,-883 -20.56,-1.14 -41.02,-2.65 -61.8,-2.65zm-1204.42 926.93c-324.55,0 -587.65,262.84 -587.65,587.07 0,324.23 263.11,587.05 587.65,587.05l123.61 0c-324.58,0 -587.67,-262.82 -587.67,-587.05 0,-305.15 233.05,-555.71 531.04,-584.18 -21.32,-1.97 -42.55,-2.89 -66.98,-2.89zm2424.05 0.71l0.95 4.49c10.26,-2.08 19.29,-2.08 28.72,-2.91 -9.83,-0.75 -19.73,-1.33 -29.67,-1.59z"/>
  <path id="path2915" class="fil0" d="M1853.88 0c-553.49,0 -1031.35,388.6 -1145.4,929.71 -19.51,-1.87 -39.17,-2.76 -58.91,-2.76 -357.92,0 -649.57,291.06 -649.57,648.74 0,357.65 291.65,649.08 649.57,649.08l30.18 0 0 679.76c0,69.52 -54.18,123.59 -123.72,123.59 -65.79,0.08 -131.26,-0.11 -196.95,-0.11 -25.81,-71.54 -93.84,-123.61 -173.82,-123.61 -101.64,0 -185.25,83.51 -185.25,185.14 0,101.67 83.62,185.63 185.25,185.63 79.84,0 147.79,-52.12 173.71,-123.58l197.06 0c135.9,0 247.33,-111.3 247.33,-247.2l0 -679.75 370.89 0 0 135.07c-71.62,25.67 -123.59,93.79 -123.59,173.79 0,101.64 83.49,185.14 185.14,185.14 101.64,0 185.63,-83.51 185.63,-185.14 0,-79.85 -52.07,-147.91 -123.61,-173.68l0.03 -135.18 494 0c0.17,127.43 -0.38,255.34 0.22,382.59 -71.42,25.77 -123.34,93.57 -123.34,173.44 0,101.65 83.49,185.27 185.14,185.27 101.65,0 185.25,-83.62 185.25,-185.27 0,-79.85 -52.06,-147.53 -123.45,-173.3 -0.24,-127.45 -0.24,-254.99 -0.24,-382.73l494.46 0 0 135.31c-71.44,25.8 -123.59,93.75 -123.59,173.55 0,101.64 84.11,185.14 185.75,185.14 101.65,0 185.14,-83.51 185.14,-185.14 0,-80 -52.01,-148.12 -123.59,-173.79l0.02 -135.07 370.9 0 0 679.75c0,135.86 111.3,247.18 247.17,247.18l197.1 0.02c25.92,71.47 93.98,123.61 173.79,123.61 101.68,-0.03 185.17,-84 185.17,-185.67 0,-101.64 -83.49,-185.14 -185.14,-185.14 -79.95,0 -148.1,52.07 -173.93,123.61 -65.73,0.05 -131.16,0.11 -196.99,0.11 -69.54,0 -123.59,-54.04 -123.59,-123.59l0 -679.76 46.01 0c343.87,0 633.65,-291.43 633.65,-649.08 0,-357.68 -291.65,-648.74 -649.57,-648.74 -19.75,0 -39.29,0.92 -58.79,2.76 -114.05,-541.11 -592.04,-929.71 -1145.52,-929.71zm0 123.72c495,0 921.09,345.45 1024.09,828.93 -92.89,26.8 -179.52,73.96 -252.74,139.4 -25.4,22.7 -27.56,61.68 -4.95,87.14 22.75,25.69 62.11,28 87.63,5.06 96.41,-86.13 220.88,-133.61 350.28,-133.61 291.19,0 525.99,234.23 525.99,525.01 0,290.78 -236.31,525.52 -510.05,525.52l-2424.56 0.02c-291.19,0 -525.85,-234.72 -525.85,-525.5 0,-290.78 234.66,-525.02 525.85,-525.02 129.4,0 253.96,47.47 350.39,133.63 25.53,22.92 64.88,20.62 87.63,-5.08 22.64,-25.45 20.32,-64.44 -5.06,-87.14 -73.27,-65.44 -159.8,-112.59 -252.74,-139.4 103,-483.49 529.09,-828.95 1024.09,-828.95zm150.5 255.87c-34.15,0.11 -61.68,27.88 -61.53,62.03 0.11,33.96 27.58,61.42 61.53,61.55 60.9,0 119.64,11.91 173.44,33.31 71.87,28.58 135.55,74.5 185.14,133.24 49.21,58.25 84.54,128.97 100.78,207.96 6.97,33.35 39.67,54.82 73.01,47.93 33.35,-6.97 54.82,-39.66 47.93,-73.01 -20.48,-99.49 -65.04,-189.16 -127.21,-262.76 -62.69,-74.2 -143.15,-132.1 -234.02,-168.23 -68.04,-27.07 -142.34,-42.01 -219.07,-42.01zm-768.57 2092.51c34.88,0 62.04,26.69 62.04,61.53 0,34.88 -27.2,62.04 -62.04,62.04 -34.86,0 -61.53,-27.2 -61.53,-62.04 0,-34.86 26.69,-61.53 61.53,-61.53zm1236.29 0c34.85,0 61.53,26.69 61.53,61.53 0,34.88 -26.69,62.04 -61.53,62.04 -34.88,0 -62.15,-27.2 -62.15,-62.04 0,-34.86 27.31,-61.53 62.15,-61.53zm-618.21 246.68c34.86,0 61.55,27.2 61.55,62.04 0,34.86 -26.7,61.53 -61.55,61.53 -34.86,0 -62.03,-26.69 -62.03,-61.53 0,-34.88 27.18,-62.04 62.03,-62.04zm-279.17 266.03c-19.15,-0.94 -37.72,6.83 -50.21,21.37 -22.29,25.83 -19.42,64.84 6.4,87.14 86.55,74.71 199.91,119.99 322.99,119.99 123.08,0 236.44,-45.25 322.99,-119.99 25.81,-22.31 28.69,-61.31 6.4,-87.14 -22.31,-25.8 -61.31,-28.67 -87.14,-6.4 -65.03,56.12 -149.34,89.92 -242.23,89.92 -92.87,0 -177.19,-33.8 -242.21,-89.92 -10.32,-8.97 -23.29,-14.18 -36.93,-14.97l-0.05 0zm-1389.45 43.32c34.88,0 62.04,26.7 62.04,61.55 0,34.86 -27.2,62.03 -62.04,62.03 -34.86,0 -61.57,-27.18 -61.53,-62.03 0,-34.88 26.69,-61.55 61.53,-61.55zm3337.37 0c34.86,0 61.55,26.7 61.55,61.55 0,34.86 -26.7,62.03 -61.55,62.03 -34.88,0.03 -62.04,-27.16 -62.04,-62.01 0,-34.86 27.2,-61.53 62.04,-61.53l0 -0.03zm-2171.92 151.83c-23.18,25.27 -21.32,64.63 4.11,87.63 131.67,119.96 307.15,192.98 499.07,192.98 191.92,0 367.39,-73.03 499.07,-192.98 25.43,-23 27.26,-62.33 4.11,-87.63 -22.96,-25.13 -61.92,-26.94 -87.14,-4.11 -109.86,100.08 -255.47,161.03 -416.04,161.03 -160.57,0 -306.18,-60.95 -416.04,-161.03 -12.64,-11.53 -29.4,-17.27 -46.48,-15.92 -15.57,1.4 -30.18,8.46 -40.69,20.04l0.03 0zm-133.59 154.74c-15.67,1.16 -30.34,8.03 -41.04,19.54 -23.21,24.86 -21.96,63.8 2.78,87.14 176.62,165.12 414.4,266.38 675.03,266.38 260.63,0 498.53,-101.25 675.18,-266.38 24.73,-23.34 25.99,-62.28 2.78,-87.14 -23.21,-24.88 -62.17,-26.24 -87.14,-3.13 -154.69,144.6 -362.11,233.05 -590.81,233.05 -228.7,0 -435.99,-88.46 -590.67,-233.05 -12.45,-11.59 -29.15,-17.51 -46.1,-16.42z"/>
 </g>
</svg>
